# xmcd
#
# Track frame offsets: 
#        150
#        13815
#        27702
#        40105
#        53625
#        68200
#        81495
#        94050
#        108700
#        121050
#        135215
#        148772
#        162025
#        176715
#        191100
#        205987
#        218805
#        233190
#        249625
#        264525
#
# Disc length: 3733 seconds
#
# Revision: 3
# Processed by: cddbd v1.5.2PL0 Copyright (c) Steve Scherf et al.
# Submitted via: ExactAudioCopy v1.3
#
DISCID=260e9314
DTITLE=Various Artist - The Slide Guitar, Bottles, Knives and Steel Vol
DTITLE=2
DYEAR=1990
DGENRE=Blues
TTITLE0=Allen Shaw - Moanin' The Blues
TTITLE1=Sam Collins - Slow Mama Slow
TTITLE2=The Georgia Browns - Decatur Street 81
TTITLE3=Sam Montgomery - Where The Sweet Old Oranges Grow
TTITLE4=Sam Montgomery - Low In Mid Blues
TTITLE5=Nellie Florence - Midnight Weeping Blues
TTITLE6=Tampa Red and Georgia Tom - Dead Cats On The Line
TTITLE7=Tampa Red - Things 'Bout Coming My Way
TTITLE8=The Hokum Boys - Caught Us Doing It
TTITLE9=Helen Humes - Cross-Eyed Blues
TTITLE10=Helen Humes - Alligator Blues
TTITLE11=Buddy Moss - Jealous Hearted Man
TTITLE12=Buddy Moss - Hard Times Blues
TTITLE13=Tampa Red and Georgia Tom - Things 'Bout Coming My Way #2
TTITLE14=Tampa Red and Georgia Tom - No Matter How She Done It
TTITLE15=Walter Beasley - Toad Frog Blues
TTITLE16=Buddy Moss - Hard Road Blues
TTITLE17=Papa Too Sweet - Big Fat Mama
TTITLE18=Tampa Red - Western Bound Blues
TTITLE19=Tampa Red - Sugar Mama Blues No.1
EXTD=YEAR: 1990
EXTT0=
EXTT1=
EXTT2=
EXTT3=
EXTT4=
EXTT5=
EXTT6=
EXTT7=
EXTT8=
EXTT9=
EXTT10=
EXTT11=
EXTT12=
EXTT13=
EXTT14=
EXTT15=
EXTT16=
EXTT17=
EXTT18=
EXTT19=
PLAYORDER=
